<svg id="Layer_1" data-name="Layer 1" xmlns="http://www.w3.org/2000/svg" viewBox="0 0 558.76 473.3"><defs><style>.cls-1,.cls-2,.cls-3,.cls-4,.cls-5{fill:none;stroke-miterlimit:10;}.cls-1{stroke:#1a7431;}.cls-1,.cls-2{stroke-width:2px;}.cls-2{stroke:#25a244;}.cls-3,.cls-4,.cls-5{stroke:#85b540;}.cls-3{stroke-width:3px;}.cls-4{stroke-width:4px;}</style></defs><path class="cls-1" d="M485.55,686.06q4.44-6.24,8.87-12.5a172.78,172.78,0,0,1-.8-123c-5.35-14.77-17.8-41.89-45.5-60.35-40.69-27.12-88.43-18.34-88.67-16.16s49.52-1.2,78,31.15c4.06,4.6,17.66,20,14.82,38.71-1.74,11.39-8.87,18.78-13.91,24.19-17.47,18.74-40.61,20.89-50.2,21.78-24.63,2.28-37.92-6.73-40-9.18a1,1,0,0,1-.29-.72c.5-2.78,21.58,2.78,41.68-1.9s35.17-18.68,34.27-20.46c-.39-.76-3.69.91-9.21,1.61-11.38,1.43-20.68-2.73-25.58-4.93-24.47-11-33.45-37.36-57.95-48.8-7.95-3.71-15.83-5-18.15-2.83a3.68,3.68,0,0,0-1.25,2.54c0,.63.69,1.33,2.61,2.91,3.85,3.17,31.3,28.58,43.09,37.65s18.75,11.94,19.05,13.15.28,3.13-1.86,3.25a18.36,18.36,0,0,1-12.1-2.92c-7.59-4.62-43.27-36.18-52.62-44.18-4.56-3.9-11.44-9.55-21.21-10.47-4.66-.44-12.27,0-13.16,2.91-1.22,4,15.13,5.4,26.71,20.16,8.07,10.29,45.46,41,45.67,43.35.28,3.24-9,1.77-10.69,1.51-29.29-4.4-44.28-46.63-71.51-60.78-3.21-1.67-11.81-6-17.3-2.62-1.56,1-3.89,3.18-3.65,5.49.15,1.44,1.32,2.8,3.65,4.08,5.14,2.83,51.61,47.08,52,50.4a4.27,4.27,0,0,1-.82,3.64c-1.79,1.73-5.85.21-7.25-.31-12.53-4.68-27.93-34.71-52.05-44.05-7.55-2.92-17-4.22-18.5-1.45-1.6,3,7,8.93,34.22,33.71,12.76,11.64,19.52,18.23,31.65,25.81a153.2,153.2,0,0,0,16.86,9.13,175.23,175.23,0,0,0,23.71,8.6c15.25,4.8,26.55,6.15,61.89,11.29,36.23,5.28,39.86,6,46.23,8.88,6.95,3.09,22.37,10.18,34.68,26.91A80.8,80.8,0,0,1,485.55,686.06Z" transform="translate(-220.62 -215.33)"/><path class="cls-2" d="M499.26,667.51a176.69,176.69,0,0,1-6.45-77,167.43,167.43,0,0,1,11-40.82c8-19.35,22-52.8,54.48-68.25,41.44-19.69,87.12,2.2,86.83,4.52-.25,2.06-36.76-9.93-67.67,9.39-2.26,1.41-30.34,19.47-28,42.94.88,8.92,5.77,14.84,12.16,22.58s23.55,25.93,50.2,29c24,2.8,37.88-6.69,40-9.18a1,1,0,0,0,.29-.72c-.5-2.78-21.58,2.78-41.68-1.9s-35.17-18.68-34.27-20.46c.39-.76,3.69.91,9.21,1.61,11.38,1.43,20.68-2.73,25.58-4.93,24.47-11,33.45-37.36,58-48.8,8-3.71,15.83-5,18.15-2.83a3.68,3.68,0,0,1,1.25,2.54c0,.63-.69,1.33-2.61,2.91-3.85,3.17-31.3,28.58-43.09,37.65s-18.75,11.94-19.05,13.15-.28,3.13,1.86,3.25a18.36,18.36,0,0,0,12.1-2.92c7.59-4.62,43.27-36.18,52.62-44.18,4.56-3.9,11.44-9.55,21.21-10.47,4.66-.44,12.27,0,13.16,2.91,1.22,4-15.13,5.4-26.71,20.16-8.07,10.29-45.46,41-45.67,43.35-.28,3.24,9,1.77,10.69,1.51,29.29-4.4,44.28-46.63,71.51-60.78,3.21-1.67,11.81-6,17.3-2.62,1.56,1,3.89,3.18,3.65,5.49-.15,1.44-1.32,2.8-3.65,4.08-5.14,2.83-51.61,47.08-52,50.4a4.27,4.27,0,0,0,.82,3.64c1.79,1.73,5.85.21,7.25-.31,12.53-4.68,27.93-34.71,52.05-44.05,7.55-2.92,17-4.22,18.5-1.45,1.6,3-7.05,8.93-34.22,33.71-12.76,11.64-19.52,18.23-31.65,25.81a153.2,153.2,0,0,1-16.86,9.13,175.23,175.23,0,0,1-23.71,8.6c-15.25,4.8-26.55,6.15-61.89,11.29-23.72,3.46-35.53,5.51-46.23,8.88C546.85,629.66,523.65,640.89,499.26,667.51Z" transform="translate(-220.62 -215.33)"/><path class="cls-3" d="M388.18,464.39c9.57-18.21,20.86-27.51,29.63-32.66,26.19-15.34,51.08-6,61.73-23.48,3.31-5.44,8.36-15.73,3.63-23.39-4.24-6.85-7.87-9.68-9.08-15.93s59.48-23.79,68.15-24.59l8.67-.81s1.21,46-2.62,49.39-11.7,5.45-11.7,5.45l-.4,21.37s8.06,13.51,8.47,14.11a1.77,1.77,0,0,0,.12.17c5.66,6.11,14.15,7.27,16,7.49,5.81.71,17.6,6.44,43.31,27.12a85.8,85.8,0,0,0-43.62,3.4c-24.21,8.65-37.24,26.33-44.08,35.61a117.43,117.43,0,0,0-18.11,36.69c-3.55-10-17.21-44.45-54.17-65.12A118.31,118.31,0,0,0,388.18,464.39Z" transform="translate(-220.62 -215.33)"/><path class="cls-3" d="M467.08,376.21c-14.84.86-37.64,1.6-38.46-2.75C426.38,361.69,586,316.28,590.71,328.3c2.35,6.07-35.3,25.31-34.69,26.32s50.85-22.75,48-32c-3-9.56-62.17-.52-107.28,12.3-44.55,12.67-87.92,32.6-86,40.52,1.14,4.62,18.45,8.23,31.34,7.15l.19,0A77.28,77.28,0,0,0,467.08,376.21Z" transform="translate(-220.62 -215.33)"/><path class="cls-3" d="M412.67,353l61-85A463,463,0,0,1,597,313.09c-39.16,1.28-90.94,8.37-146.11,32.45a384,384,0,0,0-41.58,21.25L420,353.41Z" transform="translate(-220.62 -215.33)"/><path class="cls-4" d="M281.73,447.36c-.47,5.28,3.71,9.14,7.26,8.87,3.3-.25,6.66-4.13,6.05-9-5.28-122.32,95.24-223,211.68-220.07C618.08,230,711.12,326.83,707.9,443.75a6.87,6.87,0,0,0,5.67,7.64c3.64.41,7.4-2.87,7.26-7.26,1.41-122.35-95.77-222.8-212.14-226.68C385.86,213.35,278.57,318.06,281.73,447.36Z" transform="translate(-220.62 -215.33)"/><path class="cls-5" d="M513.17,365.1" transform="translate(-220.62 -215.33)"/></svg>